<mxfile host="app.diagrams.net" agent="Mozilla/5.0 (Windows NT 10.0; Win64; x64) AppleWebKit/537.36 (KHTML, like Gecko) Chrome/135.0.0.0 Safari/537.36" version="26.2.10">
  <diagram name="第 1 页" id="_VD6Lrtv_BBdkaqjriPa">
    <mxGraphModel dx="1428" dy="751" grid="0" gridSize="10" guides="1" tooltips="1" connect="1" arrows="1" fold="1" page="0" pageScale="1" pageWidth="827" pageHeight="1169" math="0" shadow="0">
      <root>
        <mxCell id="0" />
        <mxCell id="1" parent="0" />
        <mxCell id="yIQcVDAJSdETQ7aO7Tgv-4" value="用户" style="shape=umlActor;verticalLabelPosition=bottom;verticalAlign=top;html=1;outlineConnect=0;" parent="1" vertex="1">
          <mxGeometry x="399" y="495" width="30" height="60" as="geometry" />
        </mxCell>
        <mxCell id="yIQcVDAJSdETQ7aO7Tgv-7" value="登录注册" style="ellipse;whiteSpace=wrap;html=1;" parent="1" vertex="1">
          <mxGeometry x="300" y="350" width="120" height="40" as="geometry" />
        </mxCell>
        <mxCell id="yIQcVDAJSdETQ7aO7Tgv-8" value="查看账号信息" style="ellipse;whiteSpace=wrap;html=1;" parent="1" vertex="1">
          <mxGeometry x="540" y="420" width="120" height="40" as="geometry" />
        </mxCell>
        <mxCell id="yIQcVDAJSdETQ7aO7Tgv-9" value="设计自己的考研目标" style="ellipse;whiteSpace=wrap;html=1;" parent="1" vertex="1">
          <mxGeometry x="580" y="490" width="120" height="40" as="geometry" />
        </mxCell>
        <mxCell id="yIQcVDAJSdETQ7aO7Tgv-10" value="查看考研院校" style="ellipse;whiteSpace=wrap;html=1;" parent="1" vertex="1">
          <mxGeometry x="580" y="550" width="120" height="40" as="geometry" />
        </mxCell>
        <mxCell id="yIQcVDAJSdETQ7aO7Tgv-11" value="查看考研专业" style="ellipse;whiteSpace=wrap;html=1;" parent="1" vertex="1">
          <mxGeometry x="490" y="670" width="120" height="40" as="geometry" />
        </mxCell>
        <mxCell id="yIQcVDAJSdETQ7aO7Tgv-12" value="查看院校的考研真题" style="ellipse;whiteSpace=wrap;html=1;" parent="1" vertex="1">
          <mxGeometry x="580" y="610" width="120" height="40" as="geometry" />
        </mxCell>
        <mxCell id="yIQcVDAJSdETQ7aO7Tgv-13" value="查看系统公告" style="ellipse;whiteSpace=wrap;html=1;" parent="1" vertex="1">
          <mxGeometry x="354" y="680" width="120" height="40" as="geometry" />
        </mxCell>
        <mxCell id="yIQcVDAJSdETQ7aO7Tgv-14" value="发布学习交流帖子" style="ellipse;whiteSpace=wrap;html=1;" parent="1" vertex="1">
          <mxGeometry x="10" y="515" width="120" height="40" as="geometry" />
        </mxCell>
        <mxCell id="yIQcVDAJSdETQ7aO7Tgv-15" value="点赞、评论、收藏" style="ellipse;whiteSpace=wrap;html=1;" parent="1" vertex="1">
          <mxGeometry x="20" y="620" width="120" height="40" as="geometry" />
        </mxCell>
        <mxCell id="yIQcVDAJSdETQ7aO7Tgv-16" value="咨询考研智能客服" style="ellipse;whiteSpace=wrap;html=1;" parent="1" vertex="1">
          <mxGeometry x="200" y="400" width="120" height="40" as="geometry" />
        </mxCell>
        <mxCell id="yIQcVDAJSdETQ7aO7Tgv-18" value="给平台官方留言反馈" style="ellipse;whiteSpace=wrap;html=1;" parent="1" vertex="1">
          <mxGeometry x="234" y="630" width="120" height="40" as="geometry" />
        </mxCell>
        <mxCell id="yIQcVDAJSdETQ7aO7Tgv-19" value="考研学习论坛交流" style="ellipse;whiteSpace=wrap;html=1;" parent="1" vertex="1">
          <mxGeometry x="210" y="515" width="120" height="40" as="geometry" />
        </mxCell>
        <mxCell id="yIQcVDAJSdETQ7aO7Tgv-20" value="举报社区帖子" style="ellipse;whiteSpace=wrap;html=1;" parent="1" vertex="1">
          <mxGeometry x="20" y="420" width="120" height="40" as="geometry" />
        </mxCell>
        <mxCell id="yIQcVDAJSdETQ7aO7Tgv-27" value="" style="endArrow=none;dashed=1;html=1;rounded=0;exitX=1;exitY=0.5;exitDx=0;exitDy=0;startArrow=classic;startFill=1;" parent="1" source="yIQcVDAJSdETQ7aO7Tgv-19" edge="1">
          <mxGeometry width="50" height="50" relative="1" as="geometry">
            <mxPoint x="349" y="565" as="sourcePoint" />
            <mxPoint x="399" y="515" as="targetPoint" />
          </mxGeometry>
        </mxCell>
        <mxCell id="yIQcVDAJSdETQ7aO7Tgv-28" value="" style="endArrow=none;dashed=1;html=1;rounded=0;startArrow=classic;startFill=1;exitX=0.596;exitY=-0.048;exitDx=0;exitDy=0;exitPerimeter=0;" parent="1" source="yIQcVDAJSdETQ7aO7Tgv-18" edge="1">
          <mxGeometry width="50" height="50" relative="1" as="geometry">
            <mxPoint x="330" y="610" as="sourcePoint" />
            <mxPoint x="390" y="550" as="targetPoint" />
          </mxGeometry>
        </mxCell>
        <mxCell id="yIQcVDAJSdETQ7aO7Tgv-29" value="" style="endArrow=none;dashed=1;html=1;rounded=0;startArrow=classic;startFill=1;" parent="1" edge="1">
          <mxGeometry width="50" height="50" relative="1" as="geometry">
            <mxPoint x="419" y="670" as="sourcePoint" />
            <mxPoint x="414" y="590" as="targetPoint" />
          </mxGeometry>
        </mxCell>
        <mxCell id="yIQcVDAJSdETQ7aO7Tgv-31" value="" style="endArrow=none;dashed=1;html=1;rounded=0;startArrow=classic;startFill=1;" parent="1" edge="1">
          <mxGeometry width="50" height="50" relative="1" as="geometry">
            <mxPoint x="540" y="670" as="sourcePoint" />
            <mxPoint x="440" y="555" as="targetPoint" />
            <Array as="points">
              <mxPoint x="501" y="620" />
            </Array>
          </mxGeometry>
        </mxCell>
        <mxCell id="yIQcVDAJSdETQ7aO7Tgv-33" value="" style="endArrow=none;dashed=1;html=1;rounded=0;startArrow=classic;startFill=1;exitX=0.017;exitY=0.297;exitDx=0;exitDy=0;exitPerimeter=0;" parent="1" source="yIQcVDAJSdETQ7aO7Tgv-10" edge="1">
          <mxGeometry width="50" height="50" relative="1" as="geometry">
            <mxPoint x="561" y="680" as="sourcePoint" />
            <mxPoint x="430" y="530" as="targetPoint" />
            <Array as="points" />
          </mxGeometry>
        </mxCell>
        <mxCell id="yIQcVDAJSdETQ7aO7Tgv-35" value="" style="endArrow=none;dashed=1;html=1;rounded=0;startArrow=classic;startFill=1;" parent="1" edge="1">
          <mxGeometry width="50" height="50" relative="1" as="geometry">
            <mxPoint x="580" y="630" as="sourcePoint" />
            <mxPoint x="430" y="540" as="targetPoint" />
          </mxGeometry>
        </mxCell>
        <mxCell id="yIQcVDAJSdETQ7aO7Tgv-36" value="" style="endArrow=none;dashed=1;html=1;rounded=0;startArrow=classic;startFill=1;" parent="1" edge="1">
          <mxGeometry width="50" height="50" relative="1" as="geometry">
            <mxPoint x="570" y="510" as="sourcePoint" />
            <mxPoint x="430" y="520" as="targetPoint" />
          </mxGeometry>
        </mxCell>
        <mxCell id="yIQcVDAJSdETQ7aO7Tgv-37" value="" style="endArrow=none;dashed=1;html=1;rounded=0;exitX=0.011;exitY=0.693;exitDx=0;exitDy=0;startArrow=classic;startFill=1;exitPerimeter=0;" parent="1" source="yIQcVDAJSdETQ7aO7Tgv-8" edge="1">
          <mxGeometry width="50" height="50" relative="1" as="geometry">
            <mxPoint x="340" y="565" as="sourcePoint" />
            <mxPoint x="440" y="500" as="targetPoint" />
          </mxGeometry>
        </mxCell>
        <mxCell id="yIQcVDAJSdETQ7aO7Tgv-38" value="" style="endArrow=none;dashed=1;html=1;rounded=0;exitX=0.383;exitY=1;exitDx=0;exitDy=0;startArrow=classic;startFill=1;exitPerimeter=0;" parent="1" source="yIQcVDAJSdETQ7aO7Tgv-7" edge="1">
          <mxGeometry width="50" height="50" relative="1" as="geometry">
            <mxPoint x="350" y="575" as="sourcePoint" />
            <mxPoint x="400" y="480" as="targetPoint" />
          </mxGeometry>
        </mxCell>
        <mxCell id="yIQcVDAJSdETQ7aO7Tgv-39" value="" style="endArrow=none;dashed=1;html=1;rounded=0;exitX=0.5;exitY=1;exitDx=0;exitDy=0;startArrow=classic;startFill=1;" parent="1" source="yIQcVDAJSdETQ7aO7Tgv-16" edge="1">
          <mxGeometry width="50" height="50" relative="1" as="geometry">
            <mxPoint x="360" y="585" as="sourcePoint" />
            <mxPoint x="380" y="500" as="targetPoint" />
          </mxGeometry>
        </mxCell>
        <mxCell id="yIQcVDAJSdETQ7aO7Tgv-42" value="" style="endArrow=none;dashed=1;html=1;rounded=0;exitX=1;exitY=0.5;exitDx=0;exitDy=0;startArrow=classic;startFill=1;entryX=0;entryY=0.375;entryDx=0;entryDy=0;entryPerimeter=0;" parent="1" target="yIQcVDAJSdETQ7aO7Tgv-19" edge="1">
          <mxGeometry width="50" height="50" relative="1" as="geometry">
            <mxPoint x="140" y="450" as="sourcePoint" />
            <mxPoint x="229" y="430" as="targetPoint" />
          </mxGeometry>
        </mxCell>
        <mxCell id="yIQcVDAJSdETQ7aO7Tgv-55" value="include" style="edgeLabel;html=1;align=center;verticalAlign=middle;resizable=0;points=[];" parent="yIQcVDAJSdETQ7aO7Tgv-42" vertex="1" connectable="0">
          <mxGeometry x="-0.192" y="2" relative="1" as="geometry">
            <mxPoint as="offset" />
          </mxGeometry>
        </mxCell>
        <mxCell id="yIQcVDAJSdETQ7aO7Tgv-43" value="" style="endArrow=none;dashed=1;html=1;rounded=0;exitX=1;exitY=0.5;exitDx=0;exitDy=0;startArrow=classic;startFill=1;" parent="1" source="yIQcVDAJSdETQ7aO7Tgv-14" edge="1">
          <mxGeometry width="50" height="50" relative="1" as="geometry">
            <mxPoint x="101" y="555" as="sourcePoint" />
            <mxPoint x="210" y="535" as="targetPoint" />
          </mxGeometry>
        </mxCell>
        <mxCell id="yIQcVDAJSdETQ7aO7Tgv-56" value="include" style="edgeLabel;html=1;align=center;verticalAlign=middle;resizable=0;points=[];" parent="yIQcVDAJSdETQ7aO7Tgv-43" vertex="1" connectable="0">
          <mxGeometry x="-0.091" y="-2" relative="1" as="geometry">
            <mxPoint as="offset" />
          </mxGeometry>
        </mxCell>
        <mxCell id="yIQcVDAJSdETQ7aO7Tgv-44" value="" style="endArrow=none;dashed=1;html=1;rounded=0;exitX=0.5;exitY=0;exitDx=0;exitDy=0;startArrow=classic;startFill=1;entryX=0;entryY=0.5;entryDx=0;entryDy=0;" parent="1" source="yIQcVDAJSdETQ7aO7Tgv-15" target="yIQcVDAJSdETQ7aO7Tgv-19" edge="1">
          <mxGeometry width="50" height="50" relative="1" as="geometry">
            <mxPoint x="101" y="555" as="sourcePoint" />
            <mxPoint x="190" y="535" as="targetPoint" />
          </mxGeometry>
        </mxCell>
        <mxCell id="yIQcVDAJSdETQ7aO7Tgv-54" value="include" style="edgeLabel;html=1;align=center;verticalAlign=middle;resizable=0;points=[];" parent="yIQcVDAJSdETQ7aO7Tgv-44" vertex="1" connectable="0">
          <mxGeometry x="-0.0682" y="-2" relative="1" as="geometry">
            <mxPoint as="offset" />
          </mxGeometry>
        </mxCell>
        <mxCell id="yIQcVDAJSdETQ7aO7Tgv-45" value="修改密码" style="ellipse;whiteSpace=wrap;html=1;" parent="1" vertex="1">
          <mxGeometry x="440" y="350" width="120" height="40" as="geometry" />
        </mxCell>
        <mxCell id="yIQcVDAJSdETQ7aO7Tgv-46" value="修改账户信息" style="ellipse;whiteSpace=wrap;html=1;" parent="1" vertex="1">
          <mxGeometry x="650" y="360" width="120" height="40" as="geometry" />
        </mxCell>
        <mxCell id="yIQcVDAJSdETQ7aO7Tgv-48" value="" style="endArrow=none;dashed=1;html=1;rounded=0;exitX=0.379;exitY=1.09;exitDx=0;exitDy=0;startArrow=classic;startFill=1;exitPerimeter=0;" parent="1" source="yIQcVDAJSdETQ7aO7Tgv-45" edge="1">
          <mxGeometry width="50" height="50" relative="1" as="geometry">
            <mxPoint x="356" y="400" as="sourcePoint" />
            <mxPoint x="430" y="490" as="targetPoint" />
          </mxGeometry>
        </mxCell>
        <mxCell id="yIQcVDAJSdETQ7aO7Tgv-50" value="" style="endArrow=none;dashed=1;html=1;rounded=0;exitX=0.436;exitY=0.047;exitDx=0;exitDy=0;startArrow=classic;startFill=1;exitPerimeter=0;entryX=0;entryY=0.5;entryDx=0;entryDy=0;" parent="1" source="yIQcVDAJSdETQ7aO7Tgv-8" target="yIQcVDAJSdETQ7aO7Tgv-46" edge="1">
          <mxGeometry width="50" height="50" relative="1" as="geometry">
            <mxPoint x="598" y="330" as="sourcePoint" />
            <mxPoint x="602" y="420" as="targetPoint" />
            <Array as="points">
              <mxPoint x="650" y="380" />
            </Array>
          </mxGeometry>
        </mxCell>
        <mxCell id="yIQcVDAJSdETQ7aO7Tgv-51" value="extend" style="edgeLabel;html=1;align=center;verticalAlign=middle;resizable=0;points=[];" parent="yIQcVDAJSdETQ7aO7Tgv-50" vertex="1" connectable="0">
          <mxGeometry x="0.1241" relative="1" as="geometry">
            <mxPoint as="offset" />
          </mxGeometry>
        </mxCell>
        <mxCell id="yIQcVDAJSdETQ7aO7Tgv-52" value="" style="endArrow=none;dashed=1;html=1;rounded=0;exitX=1;exitY=0.5;exitDx=0;exitDy=0;startArrow=classic;startFill=1;" parent="1" source="yIQcVDAJSdETQ7aO7Tgv-15" edge="1">
          <mxGeometry width="50" height="50" relative="1" as="geometry">
            <mxPoint x="160" y="560" as="sourcePoint" />
            <mxPoint x="234" y="650" as="targetPoint" />
          </mxGeometry>
        </mxCell>
        <mxCell id="yIQcVDAJSdETQ7aO7Tgv-53" value="include" style="edgeLabel;html=1;align=center;verticalAlign=middle;resizable=0;points=[];" parent="yIQcVDAJSdETQ7aO7Tgv-52" vertex="1" connectable="0">
          <mxGeometry x="0.0169" y="-2" relative="1" as="geometry">
            <mxPoint as="offset" />
          </mxGeometry>
        </mxCell>
        <mxCell id="yIQcVDAJSdETQ7aO7Tgv-57" value="后台管理员" style="shape=umlActor;verticalLabelPosition=bottom;verticalAlign=top;html=1;outlineConnect=0;" parent="1" vertex="1">
          <mxGeometry x="440" y="930" width="30" height="60" as="geometry" />
        </mxCell>
        <mxCell id="yIQcVDAJSdETQ7aO7Tgv-60" value="院校分类" style="ellipse;whiteSpace=wrap;html=1;" parent="1" vertex="1">
          <mxGeometry x="10" y="905" width="120" height="50" as="geometry" />
        </mxCell>
        <mxCell id="yIQcVDAJSdETQ7aO7Tgv-62" value="历年真题管理" style="ellipse;whiteSpace=wrap;html=1;" parent="1" vertex="1">
          <mxGeometry x="270" y="1070" width="120" height="50" as="geometry" />
        </mxCell>
        <mxCell id="yIQcVDAJSdETQ7aO7Tgv-63" value="真题资源分类" style="ellipse;whiteSpace=wrap;html=1;" parent="1" vertex="1">
          <mxGeometry x="330" y="1150" width="120" height="50" as="geometry" />
        </mxCell>
        <mxCell id="yIQcVDAJSdETQ7aO7Tgv-64" value="交流论坛管理" style="ellipse;whiteSpace=wrap;html=1;" parent="1" vertex="1">
          <mxGeometry x="460" y="1070" width="120" height="50" as="geometry" />
        </mxCell>
        <mxCell id="yIQcVDAJSdETQ7aO7Tgv-65" value="考研倒计时管理" style="ellipse;whiteSpace=wrap;html=1;" parent="1" vertex="1">
          <mxGeometry x="510" y="830" width="120" height="50" as="geometry" />
        </mxCell>
        <mxCell id="yIQcVDAJSdETQ7aO7Tgv-66" value="发布历年真题" style="ellipse;whiteSpace=wrap;html=1;" parent="1" vertex="1">
          <mxGeometry x="170" y="1150" width="120" height="50" as="geometry" />
        </mxCell>
        <mxCell id="yIQcVDAJSdETQ7aO7Tgv-67" value="专业信息管理" style="ellipse;whiteSpace=wrap;html=1;" parent="1" vertex="1">
          <mxGeometry x="200" y="990" width="120" height="50" as="geometry" />
        </mxCell>
        <mxCell id="yIQcVDAJSdETQ7aO7Tgv-68" value="院校管理" style="ellipse;whiteSpace=wrap;html=1;" parent="1" vertex="1">
          <mxGeometry x="190" y="910" width="120" height="50" as="geometry" />
        </mxCell>
        <mxCell id="yIQcVDAJSdETQ7aO7Tgv-69" value="增删查改" style="ellipse;whiteSpace=wrap;html=1;" parent="1" vertex="1">
          <mxGeometry x="10" y="1000" width="120" height="50" as="geometry" />
        </mxCell>
        <mxCell id="yIQcVDAJSdETQ7aO7Tgv-70" value="用户管理" style="ellipse;whiteSpace=wrap;html=1;" parent="1" vertex="1">
          <mxGeometry x="200" y="830" width="120" height="50" as="geometry" />
        </mxCell>
        <mxCell id="yIQcVDAJSdETQ7aO7Tgv-71" value="处理举报信息" style="ellipse;whiteSpace=wrap;html=1;" parent="1" vertex="1">
          <mxGeometry x="600" y="1030" width="120" height="50" as="geometry" />
        </mxCell>
        <mxCell id="yIQcVDAJSdETQ7aO7Tgv-72" value="系统管理" style="ellipse;whiteSpace=wrap;html=1;" parent="1" vertex="1">
          <mxGeometry x="600" y="955" width="120" height="50" as="geometry" />
        </mxCell>
        <mxCell id="yIQcVDAJSdETQ7aO7Tgv-73" value="回复留言" style="ellipse;whiteSpace=wrap;html=1;" parent="1" vertex="1">
          <mxGeometry x="600" y="880" width="120" height="50" as="geometry" />
        </mxCell>
        <mxCell id="yIQcVDAJSdETQ7aO7Tgv-74" value="管理员个人中心" style="ellipse;whiteSpace=wrap;html=1;" parent="1" vertex="1">
          <mxGeometry x="360" y="830" width="120" height="50" as="geometry" />
        </mxCell>
        <mxCell id="yIQcVDAJSdETQ7aO7Tgv-75" value="换头像" style="ellipse;whiteSpace=wrap;html=1;" parent="1" vertex="1">
          <mxGeometry x="440" y="740" width="120" height="50" as="geometry" />
        </mxCell>
        <mxCell id="yIQcVDAJSdETQ7aO7Tgv-76" value="修改密码" style="ellipse;whiteSpace=wrap;html=1;" parent="1" vertex="1">
          <mxGeometry x="279" y="740" width="120" height="50" as="geometry" />
        </mxCell>
        <mxCell id="yIQcVDAJSdETQ7aO7Tgv-78" value="管理轮播图" style="ellipse;whiteSpace=wrap;html=1;" parent="1" vertex="1">
          <mxGeometry x="780" y="1030" width="120" height="50" as="geometry" />
        </mxCell>
        <mxCell id="yIQcVDAJSdETQ7aO7Tgv-79" value="论坛分类" style="ellipse;whiteSpace=wrap;html=1;" parent="1" vertex="1">
          <mxGeometry x="480" y="1150" width="120" height="50" as="geometry" />
        </mxCell>
        <mxCell id="yIQcVDAJSdETQ7aO7Tgv-80" value="" style="endArrow=none;dashed=1;html=1;rounded=0;startArrow=classic;startFill=1;entryX=0.465;entryY=0.03;entryDx=0;entryDy=0;entryPerimeter=0;exitX=0.554;exitY=1.03;exitDx=0;exitDy=0;exitPerimeter=0;" parent="1" source="yIQcVDAJSdETQ7aO7Tgv-76" target="yIQcVDAJSdETQ7aO7Tgv-74" edge="1">
          <mxGeometry width="50" height="50" relative="1" as="geometry">
            <mxPoint x="400" y="800" as="sourcePoint" />
            <mxPoint x="340" y="790" as="targetPoint" />
          </mxGeometry>
        </mxCell>
        <mxCell id="yIQcVDAJSdETQ7aO7Tgv-106" value="include" style="edgeLabel;html=1;align=center;verticalAlign=middle;resizable=0;points=[];" parent="yIQcVDAJSdETQ7aO7Tgv-80" vertex="1" connectable="0">
          <mxGeometry x="-0.1834" y="1" relative="1" as="geometry">
            <mxPoint as="offset" />
          </mxGeometry>
        </mxCell>
        <mxCell id="yIQcVDAJSdETQ7aO7Tgv-81" value="" style="endArrow=none;dashed=1;html=1;rounded=0;startArrow=classic;startFill=1;entryX=0.5;entryY=0;entryDx=0;entryDy=0;exitX=0.454;exitY=1.03;exitDx=0;exitDy=0;exitPerimeter=0;" parent="1" source="yIQcVDAJSdETQ7aO7Tgv-75" target="yIQcVDAJSdETQ7aO7Tgv-74" edge="1">
          <mxGeometry width="50" height="50" relative="1" as="geometry">
            <mxPoint x="430" y="790" as="sourcePoint" />
            <mxPoint x="500" y="800" as="targetPoint" />
          </mxGeometry>
        </mxCell>
        <mxCell id="yIQcVDAJSdETQ7aO7Tgv-107" value="include" style="edgeLabel;html=1;align=center;verticalAlign=middle;resizable=0;points=[];" parent="yIQcVDAJSdETQ7aO7Tgv-81" vertex="1" connectable="0">
          <mxGeometry x="0.0303" y="-2" relative="1" as="geometry">
            <mxPoint as="offset" />
          </mxGeometry>
        </mxCell>
        <mxCell id="yIQcVDAJSdETQ7aO7Tgv-82" value="" style="endArrow=none;dashed=1;html=1;rounded=0;startArrow=classic;startFill=1;exitX=0.977;exitY=0.627;exitDx=0;exitDy=0;exitPerimeter=0;" parent="1" source="yIQcVDAJSdETQ7aO7Tgv-60" edge="1">
          <mxGeometry width="50" height="50" relative="1" as="geometry">
            <mxPoint x="243" y="980" as="sourcePoint" />
            <mxPoint x="190" y="937" as="targetPoint" />
          </mxGeometry>
        </mxCell>
        <mxCell id="yIQcVDAJSdETQ7aO7Tgv-105" value="include" style="edgeLabel;html=1;align=center;verticalAlign=middle;resizable=0;points=[];" parent="yIQcVDAJSdETQ7aO7Tgv-82" vertex="1" connectable="0">
          <mxGeometry x="-0.0599" relative="1" as="geometry">
            <mxPoint as="offset" />
          </mxGeometry>
        </mxCell>
        <mxCell id="yIQcVDAJSdETQ7aO7Tgv-83" value="" style="endArrow=none;dashed=1;html=1;rounded=0;startArrow=classic;startFill=1;exitX=-0.02;exitY=0.61;exitDx=0;exitDy=0;exitPerimeter=0;entryX=0.893;entryY=0.258;entryDx=0;entryDy=0;entryPerimeter=0;" parent="1" source="yIQcVDAJSdETQ7aO7Tgv-68" target="yIQcVDAJSdETQ7aO7Tgv-69" edge="1">
          <mxGeometry width="50" height="50" relative="1" as="geometry">
            <mxPoint x="183" y="1053" as="sourcePoint" />
            <mxPoint x="130" y="1010" as="targetPoint" />
          </mxGeometry>
        </mxCell>
        <mxCell id="yIQcVDAJSdETQ7aO7Tgv-115" value="extend" style="edgeLabel;html=1;align=center;verticalAlign=middle;resizable=0;points=[];" parent="yIQcVDAJSdETQ7aO7Tgv-83" vertex="1" connectable="0">
          <mxGeometry x="0.1841" relative="1" as="geometry">
            <mxPoint as="offset" />
          </mxGeometry>
        </mxCell>
        <mxCell id="yIQcVDAJSdETQ7aO7Tgv-84" value="" style="endArrow=none;dashed=1;html=1;rounded=0;startArrow=classic;startFill=1;exitX=0;exitY=0.4;exitDx=0;exitDy=0;exitPerimeter=0;entryX=1;entryY=0.5;entryDx=0;entryDy=0;" parent="1" source="yIQcVDAJSdETQ7aO7Tgv-67" target="yIQcVDAJSdETQ7aO7Tgv-69" edge="1">
          <mxGeometry width="50" height="50" relative="1" as="geometry">
            <mxPoint x="198" y="950" as="sourcePoint" />
            <mxPoint x="140" y="1020" as="targetPoint" />
          </mxGeometry>
        </mxCell>
        <mxCell id="yIQcVDAJSdETQ7aO7Tgv-116" value="extend" style="edgeLabel;html=1;align=center;verticalAlign=middle;resizable=0;points=[];" parent="yIQcVDAJSdETQ7aO7Tgv-84" vertex="1" connectable="0">
          <mxGeometry x="0.3393" y="-1" relative="1" as="geometry">
            <mxPoint x="10" y="3" as="offset" />
          </mxGeometry>
        </mxCell>
        <mxCell id="yIQcVDAJSdETQ7aO7Tgv-85" value="" style="endArrow=none;dashed=1;html=1;rounded=0;startArrow=classic;startFill=1;exitX=0.5;exitY=0;exitDx=0;exitDy=0;" parent="1" source="yIQcVDAJSdETQ7aO7Tgv-63" edge="1">
          <mxGeometry width="50" height="50" relative="1" as="geometry">
            <mxPoint x="390" y="1050" as="sourcePoint" />
            <mxPoint x="332" y="1120" as="targetPoint" />
          </mxGeometry>
        </mxCell>
        <mxCell id="yIQcVDAJSdETQ7aO7Tgv-113" value="include" style="edgeLabel;html=1;align=center;verticalAlign=middle;resizable=0;points=[];" parent="yIQcVDAJSdETQ7aO7Tgv-85" vertex="1" connectable="0">
          <mxGeometry x="0.0662" y="1" relative="1" as="geometry">
            <mxPoint as="offset" />
          </mxGeometry>
        </mxCell>
        <mxCell id="yIQcVDAJSdETQ7aO7Tgv-86" value="" style="endArrow=none;dashed=1;html=1;rounded=0;startArrow=classic;startFill=1;exitX=0.5;exitY=0;exitDx=0;exitDy=0;" parent="1" source="yIQcVDAJSdETQ7aO7Tgv-66" edge="1">
          <mxGeometry width="50" height="50" relative="1" as="geometry">
            <mxPoint x="390" y="1050" as="sourcePoint" />
            <mxPoint x="332" y="1120" as="targetPoint" />
          </mxGeometry>
        </mxCell>
        <mxCell id="yIQcVDAJSdETQ7aO7Tgv-114" value="include" style="edgeLabel;html=1;align=center;verticalAlign=middle;resizable=0;points=[];" parent="yIQcVDAJSdETQ7aO7Tgv-86" vertex="1" connectable="0">
          <mxGeometry x="-0.0346" relative="1" as="geometry">
            <mxPoint as="offset" />
          </mxGeometry>
        </mxCell>
        <mxCell id="yIQcVDAJSdETQ7aO7Tgv-87" value="" style="endArrow=none;dashed=1;html=1;rounded=0;startArrow=classic;startFill=1;exitX=0.5;exitY=0;exitDx=0;exitDy=0;" parent="1" source="yIQcVDAJSdETQ7aO7Tgv-79" edge="1">
          <mxGeometry width="50" height="50" relative="1" as="geometry">
            <mxPoint x="579" y="1050" as="sourcePoint" />
            <mxPoint x="521" y="1120" as="targetPoint" />
          </mxGeometry>
        </mxCell>
        <mxCell id="yIQcVDAJSdETQ7aO7Tgv-112" value="include" style="edgeLabel;html=1;align=center;verticalAlign=middle;resizable=0;points=[];" parent="yIQcVDAJSdETQ7aO7Tgv-87" vertex="1" connectable="0">
          <mxGeometry x="0.353" relative="1" as="geometry">
            <mxPoint as="offset" />
          </mxGeometry>
        </mxCell>
        <mxCell id="yIQcVDAJSdETQ7aO7Tgv-88" value="公告分类" style="ellipse;whiteSpace=wrap;html=1;" parent="1" vertex="1">
          <mxGeometry x="780" y="830" width="120" height="50" as="geometry" />
        </mxCell>
        <mxCell id="yIQcVDAJSdETQ7aO7Tgv-89" value="发布系统公告" style="ellipse;whiteSpace=wrap;html=1;" parent="1" vertex="1">
          <mxGeometry x="780" y="900" width="120" height="50" as="geometry" />
        </mxCell>
        <mxCell id="yIQcVDAJSdETQ7aO7Tgv-90" value="" style="endArrow=none;dashed=1;html=1;rounded=0;startArrow=classic;startFill=1;exitX=0;exitY=0.5;exitDx=0;exitDy=0;" parent="1" source="yIQcVDAJSdETQ7aO7Tgv-89" edge="1">
          <mxGeometry width="50" height="50" relative="1" as="geometry">
            <mxPoint x="760" y="980" as="sourcePoint" />
            <mxPoint x="720" y="979.66" as="targetPoint" />
          </mxGeometry>
        </mxCell>
        <mxCell id="yIQcVDAJSdETQ7aO7Tgv-109" value="include" style="edgeLabel;html=1;align=center;verticalAlign=middle;resizable=0;points=[];" parent="yIQcVDAJSdETQ7aO7Tgv-90" vertex="1" connectable="0">
          <mxGeometry x="0.1964" y="1" relative="1" as="geometry">
            <mxPoint as="offset" />
          </mxGeometry>
        </mxCell>
        <mxCell id="yIQcVDAJSdETQ7aO7Tgv-91" value="" style="endArrow=none;dashed=1;html=1;rounded=0;startArrow=classic;startFill=1;exitX=0;exitY=0.5;exitDx=0;exitDy=0;" parent="1" source="yIQcVDAJSdETQ7aO7Tgv-88" edge="1">
          <mxGeometry width="50" height="50" relative="1" as="geometry">
            <mxPoint x="770" y="979.66" as="sourcePoint" />
            <mxPoint x="720" y="979.66" as="targetPoint" />
          </mxGeometry>
        </mxCell>
        <mxCell id="yIQcVDAJSdETQ7aO7Tgv-108" value="include" style="edgeLabel;html=1;align=center;verticalAlign=middle;resizable=0;points=[];" parent="yIQcVDAJSdETQ7aO7Tgv-91" vertex="1" connectable="0">
          <mxGeometry x="-0.0253" y="3" relative="1" as="geometry">
            <mxPoint as="offset" />
          </mxGeometry>
        </mxCell>
        <mxCell id="yIQcVDAJSdETQ7aO7Tgv-92" value="" style="endArrow=none;dashed=1;html=1;rounded=0;startArrow=classic;startFill=1;exitX=0.005;exitY=0.417;exitDx=0;exitDy=0;exitPerimeter=0;" parent="1" source="yIQcVDAJSdETQ7aO7Tgv-78" edge="1">
          <mxGeometry width="50" height="50" relative="1" as="geometry">
            <mxPoint x="770" y="980" as="sourcePoint" />
            <mxPoint x="720" y="980" as="targetPoint" />
          </mxGeometry>
        </mxCell>
        <mxCell id="yIQcVDAJSdETQ7aO7Tgv-110" value="include" style="edgeLabel;html=1;align=center;verticalAlign=middle;resizable=0;points=[];" parent="yIQcVDAJSdETQ7aO7Tgv-92" vertex="1" connectable="0">
          <mxGeometry x="0.0057" y="1" relative="1" as="geometry">
            <mxPoint as="offset" />
          </mxGeometry>
        </mxCell>
        <mxCell id="yIQcVDAJSdETQ7aO7Tgv-93" value="" style="endArrow=none;dashed=1;html=1;rounded=0;startArrow=classic;startFill=1;exitX=1;exitY=1;exitDx=0;exitDy=0;" parent="1" source="yIQcVDAJSdETQ7aO7Tgv-70" edge="1">
          <mxGeometry width="50" height="50" relative="1" as="geometry">
            <mxPoint x="376" y="954" as="sourcePoint" />
            <mxPoint x="429" y="955" as="targetPoint" />
          </mxGeometry>
        </mxCell>
        <mxCell id="yIQcVDAJSdETQ7aO7Tgv-94" value="" style="endArrow=none;dashed=1;html=1;rounded=0;startArrow=classic;startFill=1;exitX=1;exitY=0.5;exitDx=0;exitDy=0;" parent="1" source="yIQcVDAJSdETQ7aO7Tgv-68" edge="1">
          <mxGeometry width="50" height="50" relative="1" as="geometry">
            <mxPoint x="376" y="959" as="sourcePoint" />
            <mxPoint x="429" y="960" as="targetPoint" />
          </mxGeometry>
        </mxCell>
        <mxCell id="yIQcVDAJSdETQ7aO7Tgv-95" value="" style="endArrow=none;dashed=1;html=1;rounded=0;startArrow=classic;startFill=1;" parent="1" source="yIQcVDAJSdETQ7aO7Tgv-67" edge="1">
          <mxGeometry width="50" height="50" relative="1" as="geometry">
            <mxPoint x="376" y="980" as="sourcePoint" />
            <mxPoint x="430" y="970" as="targetPoint" />
          </mxGeometry>
        </mxCell>
        <mxCell id="yIQcVDAJSdETQ7aO7Tgv-96" value="" style="endArrow=none;dashed=1;html=1;rounded=0;startArrow=classic;startFill=1;exitX=0.5;exitY=0;exitDx=0;exitDy=0;" parent="1" source="yIQcVDAJSdETQ7aO7Tgv-62" edge="1">
          <mxGeometry width="50" height="50" relative="1" as="geometry">
            <mxPoint x="376" y="989" as="sourcePoint" />
            <mxPoint x="429" y="980" as="targetPoint" />
          </mxGeometry>
        </mxCell>
        <mxCell id="yIQcVDAJSdETQ7aO7Tgv-97" value="" style="endArrow=none;dashed=1;html=1;rounded=0;startArrow=classic;startFill=1;exitX=0.5;exitY=1;exitDx=0;exitDy=0;" parent="1" source="yIQcVDAJSdETQ7aO7Tgv-74" edge="1">
          <mxGeometry width="50" height="50" relative="1" as="geometry">
            <mxPoint x="399" y="920" as="sourcePoint" />
            <mxPoint x="452" y="921" as="targetPoint" />
          </mxGeometry>
        </mxCell>
        <mxCell id="yIQcVDAJSdETQ7aO7Tgv-98" value="" style="endArrow=none;dashed=1;html=1;rounded=0;startArrow=classic;startFill=1;exitX=0.5;exitY=0;exitDx=0;exitDy=0;" parent="1" source="yIQcVDAJSdETQ7aO7Tgv-64" edge="1">
          <mxGeometry width="50" height="50" relative="1" as="geometry">
            <mxPoint x="387" y="996" as="sourcePoint" />
            <mxPoint x="460" y="1020" as="targetPoint" />
          </mxGeometry>
        </mxCell>
        <mxCell id="yIQcVDAJSdETQ7aO7Tgv-99" value="" style="endArrow=none;dashed=1;html=1;rounded=0;startArrow=classic;startFill=1;exitX=0;exitY=0.5;exitDx=0;exitDy=0;" parent="1" source="yIQcVDAJSdETQ7aO7Tgv-72" edge="1">
          <mxGeometry width="50" height="50" relative="1" as="geometry">
            <mxPoint x="440" y="960" as="sourcePoint" />
            <mxPoint x="490" y="980" as="targetPoint" />
          </mxGeometry>
        </mxCell>
        <mxCell id="yIQcVDAJSdETQ7aO7Tgv-100" value="" style="endArrow=none;dashed=1;html=1;rounded=0;startArrow=classic;startFill=1;exitX=-0.018;exitY=0.63;exitDx=0;exitDy=0;exitPerimeter=0;" parent="1" source="yIQcVDAJSdETQ7aO7Tgv-73" edge="1">
          <mxGeometry width="50" height="50" relative="1" as="geometry">
            <mxPoint x="610" y="955" as="sourcePoint" />
            <mxPoint x="490" y="955" as="targetPoint" />
          </mxGeometry>
        </mxCell>
        <mxCell id="yIQcVDAJSdETQ7aO7Tgv-101" value="" style="endArrow=none;dashed=1;html=1;rounded=0;startArrow=classic;startFill=1;exitX=0.011;exitY=0.279;exitDx=0;exitDy=0;exitPerimeter=0;" parent="1" source="yIQcVDAJSdETQ7aO7Tgv-71" edge="1">
          <mxGeometry width="50" height="50" relative="1" as="geometry">
            <mxPoint x="620" y="1000" as="sourcePoint" />
            <mxPoint x="490" y="990" as="targetPoint" />
          </mxGeometry>
        </mxCell>
        <mxCell id="yIQcVDAJSdETQ7aO7Tgv-102" value="" style="endArrow=none;dashed=1;html=1;rounded=0;startArrow=classic;startFill=1;exitX=0;exitY=1;exitDx=0;exitDy=0;" parent="1" source="yIQcVDAJSdETQ7aO7Tgv-65" edge="1">
          <mxGeometry width="50" height="50" relative="1" as="geometry">
            <mxPoint x="588" y="890" as="sourcePoint" />
            <mxPoint x="480" y="933" as="targetPoint" />
          </mxGeometry>
        </mxCell>
        <mxCell id="GiZtPVsonHw9q4GujU_1-1" value="人工客服回复" style="ellipse;whiteSpace=wrap;html=1;" parent="1" vertex="1">
          <mxGeometry x="780" y="960" width="120" height="50" as="geometry" />
        </mxCell>
        <mxCell id="GiZtPVsonHw9q4GujU_1-2" value="" style="endArrow=none;dashed=1;html=1;rounded=0;startArrow=classic;startFill=1;exitX=0;exitY=0.5;exitDx=0;exitDy=0;" parent="1" source="GiZtPVsonHw9q4GujU_1-1" edge="1">
          <mxGeometry width="50" height="50" relative="1" as="geometry">
            <mxPoint x="790" y="935" as="sourcePoint" />
            <mxPoint x="730" y="980" as="targetPoint" />
          </mxGeometry>
        </mxCell>
        <mxCell id="GiZtPVsonHw9q4GujU_1-3" value="include" style="edgeLabel;html=1;align=center;verticalAlign=middle;resizable=0;points=[];" parent="GiZtPVsonHw9q4GujU_1-2" vertex="1" connectable="0">
          <mxGeometry x="0.1964" y="1" relative="1" as="geometry">
            <mxPoint as="offset" />
          </mxGeometry>
        </mxCell>
      </root>
    </mxGraphModel>
  </diagram>
</mxfile>
